Patient4_TMGait_0pt6_01_left_40_EMG.mot
version=1
nRows=30
nColumns=33
inDegrees=no
endheader
time	1LAddLong	2LGlutMax	3LGlutMed	4LIliopsoas	5LSemiMemb	6LBicFemLong	7LRecFem	8LVastMed	9LVastLat	10LGasMed	11LTibAnt	12lTibPost	13LPeroneusLong	14LSol	15LExtDigLong	16LFlexDigLong	17RAddLong	18RGlutMax	19RGlutMed	20RIliopsoas	21RSemiMemb	22RBicFemLong	23RRecFem	24RVastMed	25RVastLat	26RGasMed	27RTibAnt	28RTibPost	29RPeroneusLong	30RSol	31RExtDigLong	32RFlexDigLong
49.115	0.019531	1.0635	-0.050659	0.019836	-0.076294	0.090485	0.35111	0.010071	-0.44128	-0.1387	-0.000763	0.043335	0.49088	0.039825	0.023651	0.012817	-0.075989	-0.37415	-0.3183	-0.010834	-0.12253	0.37598	0.54336	0.11307	0.032654	0.005951	-0.17761	-0.003204	-0.010071	0.033417	0.002441	-0.021667
49.116	0.011597	1.0388	-0.034637	0.027771	-0.10315	0.19928	0.34439	0.008545	-0.40832	-0.23422	0.036926	0.045471	0.3595	0.10315	-0.02243	0.027771	-0.0354	-0.39459	-0.34225	-0.087433	0.006104	0.21042	0.5693	0.088959	0.040741	0.003815	-0.027924	-0.011292	-0.031433	0.063477	0.010376	-0.02182
49.117	0.001526	0.93887	-0.079193	0.009918	-0.08316	0.3006	0.31158	0.001678	-0.37399	-0.28671	0.040741	0.049286	-0.16953	-0.20813	-0.10132	0.092316	0.018463	-0.44708	-0.42404	-0.063019	0.033569	0.079498	0.56595	0.15076	0.010986	0.001526	0.23529	-0.009918	-0.063934	0.06424	0.002747	-0.022888
49.118	-0.002136	0.93765	-0.061493	-0.002899	-0.068665	-0.053864	0.34439	0.007477	-0.26947	-0.22888	0.052795	0.056763	0.31754	-0.18372	0.003204	0.070801	0.050507	-0.34149	-0.27817	-0.027618	0.10925	-0.086365	0.58685	0.12421	0.00351	-0.001831	0.50858	-0.007324	-0.090332	0.046844	0.003662	-0.027771
49.119	-0.002899	0.93979	-0.069885	0.003967	-0.12528	0.045471	0.32242	0.001068	-0.14496	-0.06134	0.053711	0.070038	0.40466	-0.003052	0.068207	0.0383	0.069275	-0.34576	-0.16449	0.006409	0.13138	-0.33264	0.61737	0.058136	-0.006104	0.000153	0.62286	-0.007019	-0.092468	-0.013428	0.00061	-0.027008
49.12	0.003662	0.97244	-0.15778	0.043793	-0.16022	0.26566	0.27512	-0.002747	-0.1683	0.000763	0.050201	0.077057	-0.23987	0.11627	0.056	0.040741	0.028839	-0.32166	-0.32394	0.05249	0.061798	-0.40268	0.5986	0.10346	0.007477	0.002747	0.49667	-0.008087	-0.07843	-0.030365	0.011292	-0.026093
49.121	0.009003	0.96481	-0.080414	0.027008	-0.094452	-0.068359	0.23086	-0.001068	-0.20554	-0.13519	-0.013733	0.08667	-0.14862	0.066681	-0.024109	0.038452	0.016174	-0.30319	-0.3865	0.062103	0.03418	-0.336	0.59753	0.12573	-0.008698	-0.001221	0.224	-0.009613	-0.011444	-0.010986	0.002441	-0.022583
49.122	0.016937	1.0237	0.06958	-0.016937	-0.000916	-0.71884	0.15411	0.012665	-0.17502	-0.1561	-0.00885	0.083466	-0.72037	-0.096283	-0.1593	0.035095	0.046692	-0.2533	-0.4248	0.07019	0.043335	-0.17319	0.69061	0.002899	-0.039368	-0.009155	-0.32303	-0.007782	-0.014801	-0.001678	0.000763	-0.02182
49.123	0.014648	1.0571	0.11749	-0.018311	-0.011749	-0.44952	0.081482	0.020142	-0.12497	-0.12268	0.025024	0.092773	-1.0695	-0.079041	-0.083008	0.0354	0.076294	-0.26413	-0.64362	0.076447	0.022125	-0.026703	0.69946	0.062103	-0.058899	-0.002136	-1.1571	-0.006409	-0.018616	-0.037994	0.005798	-0.019379
49.124	0.010681	1.0974	0.1239	-0.023956	0.064392	-0.21439	0.002441	0.011597	-0.075836	0.13886	-0.00061	0.10635	-0.47852	0.053253	-0.009918	0.022736	0.063629	-0.24521	-0.70053	0.06134	-0.027161	0.17838	0.65323	0.039368	-0.068665	0.003662	-1.0081	-0.011749	0.060577	-0.054779	0.014343	-0.017242
49.125	0.016022	1.1426	0.12146	0.003357	0.094147	0.076447	-0.078888	0.006256	-0.039063	0.45273	0.005951	0.096436	1.0692	-0.026855	-0.089264	0.006561	-0.026855	-0.17899	-0.71869	0.063171	-0.06485	0.13321	0.68924	0.046997	-0.065613	0.003052	0.15457	-0.009766	-0.06546	-0.067444	0.004425	-0.014191
49.126	0.014496	1.1897	0.19501	0.036774	0.030975	0.082397	-0.070038	0.007324	-0.014954	0.54916	0.074615	0.083008	1.3177	0.018311	-0.005951	-0.001678	-0.039368	-0.14511	-0.74158	0.112	-0.036621	0.028992	0.69595	0.045776	-0.046997	-0.002899	0.55817	-0.007172	-0.13382	-0.032959	0.003357	-0.011292
49.127	0.021362	1.2166	0.20111	0.023804	0.012512	-0.054779	-0.083771	0.004425	-0.046692	0.53055	0.079803	0.072937	1.0815	0.072021	0.14267	-0.010681	-0.019989	-0.14175	-0.67993	0.10513	-0.024414	-0.13062	0.61829	0.025635	-0.041351	-0.006561	0.49835	-0.009308	-0.17136	-0.046234	0.001984	-0.014648
49.128	0.03952	1.2561	0.067596	0.009155	0.002441	-0.2298	-0.094299	0.002441	-0.071259	0.41519	0.067902	0.066986	-0.3833	0.005035	0.21683	-0.028687	-0.010986	-0.13565	-0.65323	0.13443	-0.070801	-0.15717	0.61859	-0.005341	-0.048523	-0.00412	0.26916	-0.007324	-0.13077	-0.067749	-0.005493	-0.027466
49.129	0.049438	1.2555	-0.11734	-0.005035	0.043793	-0.15686	-0.10849	0.000763	-0.094604	0.1181	-0.01709	0.06897	-0.88531	-0.052185	0.10544	0.02182	-0.028839	-0.018311	-0.66467	0.1532	-0.13123	-0.13626	0.59738	-0.040741	-0.041504	-0.003357	0.090485	-0.006866	-0.13947	-0.08255	0.000305	-0.020599
49.13	0.036774	1.3721	-0.1062	0.002747	0.069427	-0.34347	-0.14481	0.001373	-0.099182	-0.34927	-0.055084	0.056763	-0.92728	-0.14084	-0.10132	0.020447	-0.028687	0.13534	-0.72647	0.054169	-0.079193	-0.11398	0.55267	0.02594	-0.048676	-0.004578	0.23148	-0.004578	-0.12085	-0.11383	0.002441	-0.017853
49.131	0.018005	1.2567	-0.086365	0.009766	0.006866	-0.32562	-0.20325	0.010529	-0.06897	-0.51544	-0.062714	0.03891	-0.5809	-0.112	-0.23819	0.017242	-0.057068	0.2269	-0.75378	-0.1329	-0.059204	-0.035706	0.57434	0.015869	-0.031738	-0.002289	0.3241	-0.010223	-0.090179	-0.17975	0.002441	-0.025635
49.132	0.018158	1.1894	-0.089874	0.016937	0.025787	-0.242	-0.26855	0.006104	-0.033112	-0.44556	-0.032043	0.095978	-0.34531	-0.19989	-0.046692	-0.000763	-0.081177	0.29846	-0.76508	-0.26123	-0.085449	0.00473	0.52597	-0.034027	-0.033722	0.007172	0.11292	-0.007629	-0.026855	-0.20523	0.005341	-0.014038
49.133	0.020447	1.0341	-0.087891	0.011597	0.074768	-0.075226	-0.27924	0.01297	0.02243	-0.12421	-0.002747	0.04776	-0.39536	-0.50354	0.014954	0.004425	-0.066071	0.3067	-0.96573	-0.22751	-0.095215	-0.000458	0.53314	-0.093079	-0.044861	-0.001526	-0.057526	-0.007477	-0.0383	-0.046844	-0.001373	-0.016785
49.134	0.028229	0.90637	-0.052338	0.004883	0.041656	0.061951	-0.2832	0.010071	0.061951	0.19898	-0.02182	-0.086823	0.051422	0.001221	0.018158	-0.052032	-0.055695	0.45227	-1.0275	-0.16449	-0.11398	-0.001526	0.54581	-0.12054	-0.049438	-0.000305	-0.439	-0.009918	0.065765	0.013733	0.001221	-0.018921
49.135	0.020905	0.87814	0.042877	0.009308	0.005951	0.14694	-0.22171	0.011902	0.024261	-0.16632	-0.01297	-0.026703	0.32364	0.54535	0.038605	-0.058899	-0.046997	0.54214	-0.85159	-0.06958	-0.12634	-0.021667	0.48935	-0.13107	-0.046387	0.001831	-0.31677	-0.01358	0.057831	0.008545	0.001221	-0.019989
49.136	0.022736	0.81467	-0.009918	-0.005188	-0.015259	0.26413	-0.2153	0.011292	0.031128	-0.25772	-0.001221	-0.040894	0.26627	0.5661	0.056458	-0.044403	0.00351	0.62271	-0.75501	0.11444	-0.10101	0.007019	0.45746	-0.14328	-0.038605	0.002899	0.17014	-0.01358	-0.055847	-0.043488	-0.000458	-0.022583
49.137	0.008392	0.73166	-0.067749	-0.027466	-0.036926	0.28305	-0.24277	0.01236	0.08667	-0.13428	0.000305	-0.088501	0.10757	0.96024	0.050812	-0.083466	0.13596	0.75836	-0.75836	0.28931	-0.07019	0.031128	0.44708	-0.16647	-0.039063	0.000916	0.46097	-0.008392	-0.11765	-0.061951	0.003357	-0.016479
49.138	0.006866	0.63294	-0.12558	-0.011444	0.018921	0.15457	-0.30136	0.010681	0.21484	0.21957	-0.009766	0.028229	0.098267	0.50323	0.053711	-0.059967	0.1767	0.9198	-0.67001	0.24689	-0.10773	-0.057678	0.46356	-0.25299	-0.028534	-0.000916	0.31616	-0.012054	-0.15579	-0.051117	0.00061	-0.015869
49.139	0.006256	0.52292	-0.25711	0.006256	0.044403	-0.26032	-0.37262	0.011292	0.22247	0.43686	-0.010986	-0.005035	0.14542	-0.15762	0.031281	-0.039673	0.16861	1.0265	-0.64484	0.11856	-0.12833	-0.07309	0.3421	-0.28946	-0.013428	0.002289	0.042725	-0.006256	-0.060272	-0.077972	0.000153	-0.014496
49.14	0.007477	0.45212	-0.215	0.012817	0.010376	-0.12161	-0.36438	0.009918	0.09491	0.30197	-0.003204	-0.28442	0.038757	-0.018005	-0.028534	0.003967	0.10269	1.1328	-0.64133	0.034332	-0.19501	-0.016174	0.29556	-0.26596	-0.015106	-0.002136	-0.061798	-0.008392	-0.10346	-0.059662	0.003204	-0.009003
49.141	0.002594	0.35614	-0.15732	0.026703	-0.028534	-0.038147	-0.34378	0.00946	0.034027	0.2359	0.007935	-0.061646	-0.035095	-0.29511	-0.011292	0.074921	0.054626	1.2395	-0.70465	0.058746	-0.25391	0.084686	0.30685	-0.1712	-0.004272	-0.006561	0.1741	-0.006561	-0.17288	-0.080872	-0.002747	-0.010071
49.142	-0.003967	0.31296	-0.090332	0.045471	-0.085907	-0.046997	-0.22995	0.006256	0.010681	0.45075	0.008087	-0.052795	0.014954	-0.72876	-0.014038	0.16388	0.027008	1.2909	-0.69458	0.056915	-0.20874	0.22156	0.3215	-0.12131	0.009308	-0.003967	0.12146	-0.006866	-0.08606	-0.085602	-0.000458	-0.007019
49.143	0.011139	0.30243	-0.056	0.041656	-0.070343	-0.15976	-0.20737	-0.001678	0.035248	0.47638	0.003052	-0.027924	0.020752	-1.0339	-0.015869	-0.13916	0.024719	1.4909	-0.63034	0.10468	-0.17288	0.15991	0.39597	-0.22201	-0.010071	0.00061	-0.5658	-0.003357	-0.045624	-0.13733	0.001373	-0.013123
49.144	0.013275	0.26382	-0.056	0.04303	0.023193	-0.16556	-0.1828	-0.001526	0.011902	-0.1442	0.017548	0.053558	-0.066986	-0.8696	-0.037994	0.018005	0.069275	1.6299	-0.49774	0.042725	-0.10391	0.10437	0.42862	-0.18585	-0.01709	0.006714	-0.7309	-0.007477	-0.063477	-0.14481	-0.000153	-0.008698
